<svg width="135" height="65" viewBox="0 0 135 65" fill="none" xmlns="http://www.w3.org/2000/svg">
<path d="M19.5347 63.6654L0 0.72168H18.1871L29.7186 45.9734L42.2547 0.72168H60.4974L73.0262 45.9734L84.5577 0.72168H102.74L82.9735 63.6654H63.5934L51.376 18.2205L38.9124 63.6654H19.5323H19.5347Z" fill="#051316"/>
<path d="M123.433 64.3887C129.27 64.3887 134.001 59.6573 134.001 53.8208C134.001 47.9843 129.27 43.2529 123.433 43.2529C117.597 43.2529 112.865 47.9843 112.865 53.8208C112.865 59.6573 117.597 64.3887 123.433 64.3887Z" fill="#EC2E3A"/>
<path d="M123.433 21.1358C129.27 21.1358 134.001 16.4044 134.001 10.5679C134.001 4.73141 129.27 0 123.433 0C117.597 0 112.865 4.73141 112.865 10.5679C112.865 16.4044 117.597 21.1358 123.433 21.1358Z" fill="#EC2E3A"/>
</svg>
